<?xml version='1.0' encoding='utf-8'?>
<svg xmlns="http://www.w3.org/2000/svg" width="922px" height="660px" version="1.1" viewBox="39 670 922 660"> <g fill="#68bebf"> <path d="m38.999 669.47c-0.14028 0-0.27482 0.0557-0.37401 0.1549-0.099195 0.0992-0.15492 0.23376-0.15492 0.374l1e-3 660c0 0.2921 0.23681 0.5289 0.52893 0.5289l922 1e-3c0.14024 0 0.2748-0.0557 0.374-0.1549s0.1549-0.2338 0.1549-0.374l-9.7e-4 -660c0-0.2921-0.23683-0.52893-0.52893-0.52893l-922-9.7e-4z"/> </g> <g> <g fill="#ffb298"> <path d="m391.59 994.12 0.17392 0.82495q0.67182 2.8585 0.4263 5.1564-0.32602 2.0611-1.5868 3.383-1.8302 1.8346-4.6489 3.1309-2.6459 1.2877-7.9399 3.2036l13.575-15.699"/> </g> <g fill="#230100"> <path d="m409.57 976.16-6.7811-7.5996c-0.93665-1.0503-2.5465-1.1417-3.5961-0.20483l-30.7 27.386c-1.0495 0.93655-1.1412 2.5457-0.20443 3.5948l6.7822 7.5991c0.9365 1.0491 2.5463 1.1405 3.5951 0.20473l30.699-27.385c1.0496-0.93654 1.1414-2.5456 0.205-3.5954z"/> </g> <g fill="#fff"> <path d="m402.31 980.75c-0.16267 2.853-2.6072 5.0343-5.4601 4.8717-2.8531-0.16259-5.0341-2.607-4.8714-5.46 0.16247-2.8533 2.6072-5.0342 5.4603-4.8718 2.853 0.1626 5.034 2.6069 4.8713 5.4601z"/> </g> <g fill="#ff0400"> <path d="m402.04 971.99c-0.04945 0.86697-0.79228 1.5291-1.6589 1.4801-0.86686-0.04969-1.5293-0.79224-1.4799-1.6589 0.04936-0.8666 0.79216-1.5293 1.6589-1.48 0.86673 0.0492 1.5293 0.792 1.4799 1.6588z"/> </g> <g fill="#fff"> <path d="m390.43 984.61c-0.06094 1.0698-0.97772 1.8873-2.0476 1.8265-1.0697-0.06079-1.8876-0.97754-1.8266-2.0472 0.06093-1.07 0.97756-1.8876 2.0473-1.8269 1.0699 0.061 1.8877 0.9779 1.8269 2.0476z"/> <path d="m394.08 988.71c-0.06108 1.0697-0.97804 1.8879-2.0481 1.8271-1.0702-0.0613-1.8883-0.9778-1.8271-2.0477 0.06088-1.0704 0.97787-1.8884 2.0479-1.8274 1.0701 0.0608 1.8883 0.9779 1.8273 2.048z"/> <path d="m386.79 987.77c-0.06088 1.0699-0.97762 1.8876-2.0474 1.8271-1.0698-0.06113-1.8876-0.97776-1.8267-2.0476 0.06088-1.0699 0.97751-1.8879 2.0475-1.8265 1.0697 0.0608 1.8876 0.97764 1.8266 2.047z"/> <path d="m390.44 991.86c-0.0608 1.07-0.97776 1.888-2.048 1.827-1.0702-0.06105-1.8883-0.9778-1.8273-2.0478 0.06096-1.07 0.97791-1.8884 2.0481-1.8275 1.0701 0.06106 1.8882 0.97766 1.8272 2.0482z"/> <path d="m382.99 991.02c-0.06087 1.07-0.97745 1.888-2.0473 1.8267-1.0698-0.0604-1.8877-0.97766-1.8268-2.0469 0.06094-1.07 0.97758-1.8879 2.0474-1.8269 1.0698 0.06094 1.8876 0.97756 1.8267 2.0471z"/> <path d="m386.64 995.12c-0.06104 1.0699-0.97794 1.8883-2.048 1.8275-1.0703-0.0614-1.8884-0.9779-1.8275-2.0482 0.06106-1.0701 0.97806-1.8882 2.0481-1.8273 1.0702 0.0613 1.8883 0.97816 1.8274 2.048z"/> </g> <g> <path d="m399.09 980.65c-0.0611 1.0703-0.978 1.8884-2.0482 1.8274-1.07-0.06064-1.8882-0.97778-1.8272-2.0481 0.06087-1.07 0.97787-1.8884 2.0481-1.8274 1.0701 0.06091 1.8881 0.97778 1.8272 2.0481z"/> </g> <g fill="#ffb298"> <path d="m386.9 993.18 3.4722 0.0057q1.0963 0.06545 1.548 0.35037 0.18439 0.1084 0.33191 0.2749l0.13608 0.18457q0.12566 0.20106 0.20084 0.48216 0.07354 0.28334 0.09658 0.647 0.0362 0.14245-0.02182 1.2339-0.08001 1.1261-0.50711 3.601l-3.1974-1.174-2.0593-5.6057"/> </g> <g> <path d="m272.21 935.38v4.6e-4 9.8e-4 4.6e-4 -0.0017l-0.0045-0.0306v-4e-4c-0.4524-3.0511-0.87377-5.9803 0.11113-8.7101v3.3e-4c0.98919-2.7421 3.423-5.339 6.4404-7.6698v3.1e-4c2.6195-2.0229 5.5921-3.7776 8.852-4.2182h1.4e-4c0.48914-0.0663 0.98426-0.1032 1.4861-0.10635v8e-4c3.8718-0.02805 8.1734 1.9035 12.587 3.8936 0.14067 0.06344 0.30547 0.03858 0.4214-0.06356v8e-4l4.1252-3.6277c0.13897-0.12234 0.17398-0.325 0.08415-0.48654h7e-5l-3.6547-6.579-0.2268 0.5665c1.2913-0.4018 2.545-0.79095 3.8157-0.96264v1.4e-4c0.6044-0.0822 1.2086-0.11415 1.8166-0.07436v1.3e-4c1.898 0.12313 3.8856 0.94128 5.9522 1.7958 0.20074 0.083-0.04172-1.1223-0.24234-1.2058-4.1492-1.7196-5.6587-1.3753-5.6587-1.3753v9.1e-4c-0.66935-0.04406-1.3267-0.00891-1.973 0.07864v3e-4c-1.3475 0.1818-2.6645 0.5926-3.9441 0.99095-0.1131 0.03522-0.20428 0.11955-0.24833 0.22945-0.04412 0.1095-0.0362 0.2336 0.0213 0.33695v6.5e-4l3.6545 6.5788 0.08422-0.48669-4.1254 3.6272 0.42128-0.0626c-4.3619-1.9673-8.8355-3.9929-12.916-3.9643l1.6e-4 3e-4c-0.5366 0.0033-1.0653 0.04256-1.5861 0.1131-3.4634 0.4682-6.5686 2.3218-9.2274 4.3753v3e-4c-3.0538 2.3582-5.6332 5.0693-6.6996 8.0242-1.0635 2.948-1.514 1.3707-1.0676 4.3827l0.26227 1.5326-0.71057-0.6525c0.03186 0.215 2.181 3.96 2.1492 3.7454v4.6e-4 -4.6e-4 4.6e-4z"/> <path d="m293.94 885.68c2.4031-0.3252 4.6952-0.43945 6.7488-0.37895 6.865 0.2033 11.017 2.3578 13.665 5.2691 2.6616 2.9267 3.8182 6.6326 3.4936 9.7061-0.31848 3.0125-2.0595 5.458-3.8958 7.9736-0.00949 0.01282-0.02372 0.02087-0.03909 0.02337-0.00723 0.0011-0.01465 4.4e-4 -0.02201-0.0012-0.00299-0.0012-0.0058-0.0017-0.00842-0.00306l5.2e-4 4.3e-4c-1.1059-0.45607-2.2258-0.90437-3.3346-1.2251v2.3e-4c-0.81481-0.23577-1.6317-0.40465-2.443-0.4576-0.66296-0.043-1.3168-0.00815-1.9624 0.07956-1.3366 0.18074-2.6344 0.58414-3.9004 0.97864v6.7e-4l-0.0332 0.00923c-0.0965 0.03014-0.17413 0.102-0.21167 0.1957-0.03743 0.0935-0.03091 0.1992 0.01819 0.28756v2.4e-4l3.5004 6.3014c0.01328 0.024 0.00805 0.0542-0.01233 0.0722l-3.6969 3.2509c-0.00876 0.00765-0.01944 0.01247-0.03055 0.01393-0.00947 0.00107-0.01895 2.7e-4 -0.02804-0.00333-0.0015-2.7e-4 -0.00275-0.0011-0.00413-0.00137h4.4e-4c-2.6111-1.1775-5.2451-2.3541-7.7938-3.0909-1.6554-0.47834-3.2871-0.7752-4.8663-0.764h-4.8e-4c-0.53394 0.00374-1.0601 0.04274-1.5784 0.1126-3.4498 0.4666-6.5458 2.3143-9.1998 4.3638-3.051 2.3566-5.6197 5.0591-6.6803 7.9984-0.83566 2.3162-0.72152 4.7504-0.41546 7.1592 4e-3 0.0314-0.01837 0.0606-0.0499 0.06497l-1.2e-4 7.3e-4c-0.02506 0.00244-0.04828-0.0105-0.05933-0.03186l2.2e-4 9.6e-4c-0.14227-0.2733-0.28852-0.5476-0.44427-0.8341-0.36424-0.6693-0.7623-1.371-1.1823-2.111l6e-5 3.5e-4 -0.00226-0.0039-1.5e-4 -5e-4c-2.7108-4.7779-6.193-10.932-5.9017-17.567 0.33642-7.6649 5.7226-16.053 13.204-21.134 1.1844-0.80477 2.4217-1.526 3.693-2.1696 4.3544-2.2052 9.0996-3.4948 13.473-4.0863z"/> <path d="m272.94 945.41v6.3e-4c0.02753 0.20327 0.20667 0.35107 0.41172 0.33997l-4.9e-4 8.5e-4 0.0115-0.00171 3.4e-4 3.6e-4c0.80209-0.04503 1.6236-0.0903 2.4035-0.1959l1.3e-4 6e-4c2.069-0.2804 3.998-1.007 4.6808-3.4111 0.53659-1.8893 0.27634-4.8079 0.02884-7.6514v6e-4c-0.16596-1.9117-0.33102-3.8129-0.28262-5.4498v3e-4c0.12213-4.1383 1.5836-6.3808 3.7525-6.7342v2.5e-4c0.0339-0.00574 0.06885-0.0108 0.1033-0.0155v3e-4c2.2754-0.3084 5.5084 1.3006 7.1714 3.9851v2.5e-4c1.6842 2.719 1.7514 6.5332 1.8093 10.507 0.0029 0.2079 0.1669 0.3773 0.3743 0.38746l3.9311 0.1875c0.10513 0.00524 0.20789-0.03211 0.28525-0.10339 0.07748-0.07142 0.12305-0.1709 0.12658-0.27601v8.4e-4l0.44468-13.171-0.0629 0.20081 3.6773-5.6772c0.11819-0.1825 0.0661-0.42604-0.11618-0.54433-0.18228-0.1181-0.42584-0.06592-0.54401 0.11633v2.5e-4l-3.6773 5.6774c-0.03867 0.0599-0.06055 0.1286-0.06296 0.20054l-0.44474 13.17 0.41178-0.3794-3.9309-0.1882 0.3745 0.3873c-0.05687-3.9039-0.10448-7.9675-1.927-10.91v0.00104c-1.7902-2.8913-5.3-4.7098-7.9456-4.3514v7.9e-4c-0.04136 0.00405-0.08349 0.01085-0.12454 0.0174l6e-5 2.5e-4c-2.7702 0.45135-4.2876 3.2667-4.4123 7.4867v2e-4c-0.04996 1.6916 0.12036 3.642 0.28538 5.5406v2.4e-4c0.2534 2.9119 0.4853 5.6519-2e-3 7.368-0.551 1.9406-2.0578 2.5791-4.0295 2.846v2.3e-4c-0.74392 0.10057-1.5332 0.14417-2.3416 0.18907l3.5e-4 7.5e-4 -0.01143 2.5e-4 0.41113 0.3395v-2.7e-4c-0.0291-0.21497-0.2272-0.36573-0.44238-0.33667-0.2153 0.02881-0.3663 0.22681-0.33722 0.44224z"/> <path d="m287.6 914.7c0.49091-0.06706 0.98794-0.1035 1.4915-0.1067 1.4924-0.01065 3.0556 0.2702 4.6712 0.73733 2.3361 0.67523 4.7546 1.7305 7.2025 2.8316 0.01745 0.00785 0.02743 0.0264 0.02487 0.0452-0.00159 0.01123-0.00742 0.02045-0.0156 0.0272l0.0015 3e-4 -3.4755 5.3656 6e-5 3e-4c-0.0347 0.05314-0.05425 0.11466-0.0563 0.1783l-0.43127 12.771c-7.3e-4 0.0212-0.01639 0.03843-0.03699 0.0411-0.00107 0-0.00244 2.6e-4 -0.00354 2.6e-4h-0.0055l0.0013 6.4e-4 -3.1619-0.152 5.4e-4 2.4e-4 -0.00171-2.4e-4c-0.02261-5e-4 -0.0408-0.0189-0.04113-0.0416-0.05622-3.7923-0.15748-7.6813-1.9152-10.519-1.5632-2.5235-4.4249-4.2077-6.8613-4.3634h-0.00122l0.00122 8e-4c-0.35592-0.02365-0.70574-0.0142-1.0423 0.0316-0.04132 0.0055-0.08235 0.01146-0.12315 0.0183-2.7375 0.4464-4.2519 3.2306-4.3765 7.4458-0.04971 1.6841 0.11924 3.6269 0.28388 5.5206l8e-5 4.9e-4 0.00123 0.01504 7e-5 2e-4 8.2e-4 0.01015v2.5e-4c0.2528 2.9043 0.48508 5.6496-0.00425 7.3727-0.56042 1.9738-2.1014 2.6097-4.0594 2.8745-0.66303 0.0902-1.3782 0.13756-2.1187 0.17955l-0.00314 4.9e-4 -0.00168-4.9e-4c-0.01227 0-0.02382-0.00575-0.03182-0.01501-0.00794-0.00928-0.01158-0.0221-0.0098-0.03404 0.03106-0.21523 0.05932-0.4329 0.0836-0.6426 0.3404-2.9386 0.0185-5.3301-1.4616-8.6527l-0.00137 5e-4c-0.00743-0.0133-0.0076-0.0297-6e-5 -0.0425 0.03656-0.06555 0.0527-0.1427 0.04083-0.22315-0.4537-3.06-0.8838-6.0106 0.10877-8.7616 0.99328-2.753 3.4352-5.3567 6.4544-7.6888 2.6238-2.0257 5.603-3.7844 8.8726-4.2263z"/> </g> <g fill="#ffb298"> <path d="m307.21 907.07c0.28931-0.01066 0.57953-0.0075 0.87107 0.01148v1.2e-4c1.8942 0.12324 3.8649 0.92034 5.8686 1.7487 0.07198 0.0296 0.12148 0.09354 0.13476 0.16666l0.00144 3.4e-4c0.84378 2.4109 1.6582 4.822 1.9769 7.5791 0.15644 1.3521 0.19355 2.7894 0.22934 4.174v2e-4l5.8e-4 0.0241v7.7e-4l6e-4 0.02337c0.0404 1.5557 0.08024 3.0489 0.29295 4.2533 0.40537 2.2976 1.4362 3.5412 2.4457 4.7574l2.8e-4 6e-4 0.00189 0.00236c0.01193 0.01458 0.0216 0.02974 0.02951 0.04594l0.0014 9e-4c1.1275 1.6768 2.1625 3.2525 1.928 4.4404-0.23492 1.1909-1.7656 2.0577-3.4286 2.9806-0.05841 0.0322-0.09226 0.09606-0.08666 0.1626v7e-4c0.16454 1.9345 0.3215 3.8125 0.06518 4.7618-0.18872 0.6998-0.59898 0.86426-1.105 0.9324l-1.3e-4 9.5e-4c-0.12707 0.01645-0.26454 0.02745-0.40114 0.03855-0.05244 0.0042-0.1001 0.03274-0.1287 0.0769-0.0288 0.04434-0.03534 0.099-0.01773 0.1487v2.5e-4c0.37005 1.0468 0.67621 1.956 0.47473 2.3482v2.4e-4c-0.01642 0.03176-0.03735 0.06153-0.0638 0.08986l-2.3e-4 8.4e-4c-0.00769 0.00732-0.01492 0.01441-0.02322 0.02246-0.11785 0.1094-0.30283 0.1802-0.55689 0.27466-0.00549 0.00134-0.01098 0.00364-0.01646 0.00488l0.00154 3.6e-4 -0.00334 1e-3 -5e-5 8.4e-4 -0.01805 0.00596c-0.30418 0.1123-0.67616 0.2553-0.99595 0.5525-0.67495 0.6267-1.0854 1.8988-1.1027 3.3643v4.9e-4c-0.00326 0.27148 0.00708 0.55064 0.01728 0.8269v4.9e-4l6e-5 0.00281c0.04584 1.2423 0.07736 2.4034-0.92186 3.1386-0.67384 0.4954-1.8331 0.8139-3.1121 0.9867l-4.3e-4 7.6e-4c-0.58795 0.07884-1.1939 0.12671-1.7793 0.1488-0.51812 0.0188-1.0205 0.01724-1.4805-0.00156-2.0947-0.08523-3.2873-0.5276-4.4953-0.976l-0.00266-7e-4h-6.4e-4c-0.02068-0.00734-0.04181-0.01-0.06235-0.0098-0.05566 0.0021-0.10821 0.0315-0.13853 0.08096l-0.01454 0.0238-0.01459 0.02404-7e-5 6e-4c-2.0404 3.3231-4.0844 6.6541-5.1459 8.9278-0.93623 2.005-1.1113 3.1931-1.1883 4.2627-0.00824 0.11475-0.10132 0.20349-0.21477 0.20815-0.00416 0-0.0082 2e-4 -0.01228 0-0.01886-7.6e-4 -0.03717-0.00295-0.05459-0.0082l7.9e-4 6e-4c-7.1178-1.8995-14.155-3.7916-18.292-5.6011-4.0493-1.7713-5.3043-3.4557-6.468-5.1483l0.00183 5e-4c-0.00913-0.01-0.01731-0.02013-0.02491-0.0315-0.03833-0.057-0.04835-0.1279-0.02728-0.19335l0.00388-0.01255c1.2342-3.8346 2.4643-7.6791 3.0402-10.984l0.0011 2e-4c0.00126-0.118 0.09353-0.2152 0.21124-0.2214 0.78516-0.04335 1.5763-0.08913 2.3275-0.19045 2.0418-0.27625 3.8503-0.97778 4.4958-3.2502v3e-4c0.51778-1.8239 0.27468-4.6572 0.02774-7.4955l-0.00653-0.0753v4.6e-4c-0.16593-1.9081-0.3323-3.8235-0.28348-5.476 0.12272-4.1623 1.6008-6.5668 3.94-6.9478 0.03601-6e-3 0.073-0.01175 0.1094-0.01645 0.14008-0.0191 0.28241-0.0307 0.4278-0.03619 2.3313-0.08636 5.3611 1.5384 6.9636 4.126v2.6e-4c1.7238 2.7826 1.7852 6.6673 1.8428 10.621 0.0013 0.0896 0.07205 0.1626 0.16158 0.16697l3.9308 0.18814 0.00144 4.6e-4 1.3e-4 -4.6e-4h0.01287c0.04031-0.00134 0.07883-0.01744 0.10885-0.04468 0.03333-0.03101 0.05295-0.07376 0.05442-0.11902v-2.4e-4l0.4411-13.061c0.00143-0.04056 0.01376-0.08005 0.03576-0.1141l3.488-5.385c0.03375-0.05218 0.08772-0.0877 0.14882-0.09851l0.00166-3.3e-4c0.01007-0.00156 0.02036-0.0028 0.03054-0.00327 0.0344-0.0011 0.06873 0.00543 0.10023 0.01937l0.00497 0.0025 5.8e-4 3e-4v5e-4c0.02422 0.01 0.0499 0.0147 0.07544 0.01414 0.03845-0.00134 0.07584-0.01614 0.10575-0.0423l4.1252-3.6272c0.06-0.05263 0.0751-0.14034 0.03632-0.21004l-3.4192-6.1552-0.0015 4.3e-4c-0.01449-0.02663-0.02408-0.05553-0.02716-0.08693-0.01041-0.1061 0.05502-0.20463 0.15649-0.2362 1.1306-0.3484 2.2521-0.6732 3.3913-0.82775l0.0032-1.5e-4 1.9e-4 6.4e-4 -1.9e-4 -6.4e-4c0.32826-0.0447 0.6565-0.0745 0.98679-0.08664z"/> <path d="m314.41 908.61 2.7e-4 0.0011q7e-4 0.0025 0.00184 0.0053 0 2.6e-4 0.00299 0.00654 0.00165 0.00336 0.00347 0.00656 2.8e-4 4e-4 0.00205 0.00254l0.00312 9.1e-4 -0.01027-0.02295-0.00347 5.5e-4"/> </g> <g fill="#fc26cb"> <path d="m262.67 909.24 6.8e-4 3.5e-4 -6.8e-4 -3.5e-4v6.5e-4z"/> </g> <g> <path d="m310.92 1130.8 20.343-60.79 68.391 16.618q2.9427 0.7993 5.8062 1.7321 8.9067 2.2651 14.259 10.537 3.4362 5.7364 3.7132 16.812 0.55944 1.9402-1.6978 20.184-4.1003 27.128-20.023 85.776-15.603 7.6587-23.702 7.2026-8.1275-1.0867-9.9775-9.8135-5.1787-13.639 9.2398-93.231l-66.352 4.9728z"/> </g> <g fill="#3d708d"> <path d="m355.63 1109.4-149.67 0.0015q-5e-5 59.474-2e-4 118.95 74.836-7e-4 149.67-3e-4 1e-4 -59.476 2e-4 -118.95z"/> </g> <g fill="#7d8b96"> <path d="m353.47 1055.7-115.41 0.0012q-9e-5 34.57-1.2e-4 69.142 57.705-3e-4 115.41-2e-4 6e-5 -34.572 6e-5 -69.143z"/> </g> <g fill="#bfc9d2"> <path d="m252.43 987.98-23.555 6.1e-4 -23.555 4.9e-4q-1.5e-4 68.246-2.1e-4 136.49 23.555 1e-3 47.11 5e-4 1.5e-4 -68.247 2.8e-4 -136.49z"/> </g> <g fill="#3c464f"> <path d="m356.61 1117.2-74.836 1e-3 -74.836-4e-4q-4e-5 59.476-1.1e-4 118.95 74.836-2e-4 149.67 3e-4 6e-5 -59.476 2.4e-4 -118.95z"/> </g> <g fill="#bfc9d2"> <path d="m253.41 995.8-47.11 7.5e-4q-6e-5 68.246-9e-5 136.49 23.555 0 47.11-2e-4 1.2e-4 -68.247 2.4e-4 -136.49z"/> </g> <g fill="#ffb298"> <path d="m370.96 991.39 10.096-5.3026 5.703 4.1062-2.2496 2.0033-3.8533-2.1379-1.0972 1.9973 11.1 1.2624 0.10953 5.6643-3.3184 0.11657q0.92435-0.08715 0.41022 2.0182-0.92023 3.8168-2.2657 6.6901-0.97003 2.1592-2.2977 3.855-0.66351 0.82471-1.4111 1.4011l-0.76767 0.49624q-0.78855 0.42393-1.6453 0.60166-0.39587 0.20654-2.6926 0.10634-2.8322-0.392-5.8514-1.4453l0.031-21.433z"/> </g> <g fill="#fff"> <path d="m349.27 1067.5-4.8311 14.84 4.8294-14.839z"/> </g> <g fill="#11527e"> <path d="m297.69 998.14 3.8388 1.0006 3.8388 1.0001q35.268-5.5964 70.535-11.192-2.0224 12.636-4.0452 25.271-32.421 7.2621-64.842 14.525l-9.3248-30.604z"/> <path d="m301.61 1030 1.2e-4 8e-4 52.484 27.507q-5.2038 13.132-10.408 26.264-29.801-13.966-59.602-27.932l17.525-25.839z"/> <path d="m306.38 994.74v0.0011l12.017 44.681 17.481 47.371-13.405 30.429-28.957 9.0429-37.461-84.254c-2.0335-4.7107-3.9947-9.4148-5.6048-14.209-1.9994-5.9528-2.8118-9.6081-3.0088-10.836-0.39347-2.4525-0.79493-4.8966-0.97165-7.3801-0.52951-7.4455 0.98303-15.184 4.5006-23.259 4.0854-9.3794 10.312-22.282 21.649-37.79 2.0463 1.6574 2.0804 1.7057 2.0804 1.7057 1.4347 2.0314 31.681 44.497 31.681 44.497v0.0011z"/> <path d="m271.63 949.48 1.2e-4 9e-4 1.3556-4.8234 25.382 13.902-1.6174 6.3131c4.9599 7.7894 7.9425 14.24 9.3313 19.25 1.3514 4.8756 5.9658 18.881 6.4842 30.856l-40.936-65.5 1.2e-4 9e-4z"/> </g> <g fill="#fff"> <path d="m296.42 999.62c-0.08548 0.05223-0.16968 0.1073-0.25296 0.1649v-2.4e-4l-0.00164 2.4e-4c0.08316-0.0569 0.16745-0.1118 0.25289-0.1644z"/> <path d="m290.05 979.07c0.04973 0.10365 0.09993 0.20765 0.15 0.31105-0.00176 0-0.00353 6.1e-4 -0.0052 0.0017l5e-5 3.5e-4c-0.04835-0.10496-0.09753-0.20896-0.14661-0.3131z"/> <path d="m289.73 978.41 0.02568 0.04136-0.02568-0.04087v-4.9e-4z"/> </g> <g fill-opacity=".99608"> <path d="m259.69 959.84q2.8e-4 7.6e-4 0 0z"/> </g> <g fill="#fff" fill-opacity=".99608"> <path d="m378.29 1050.2 1.3e-4 5e-4v-5e-4l-1.3e-4 2e-4z"/> </g> <g fill="#3c464f" fill-opacity=".99608"> <path d="m224.16 883.1v5.5e-4l1.2e-4 -5.5e-4 -1.2e-4 5.5e-4v-5.5e-4 5.5e-4l1.2e-4 -5.5e-4q-1.2e-4 0-1.2e-4 0z"/> <path d="m228.81 855.49v3.6e-4 2.4e-4 -6e-4 3.6e-4 -3.6e-4 6e-4q0-6e-4 0-6e-4z"/> <path d="m228.81 855.49v3.6e-4 2.4e-4 -6e-4 3.6e-4 -3.6e-4 6e-4q0-6e-4 0-6e-4z"/> <path d="m229.41 873.82v1e-4l6e-5 8.5e-4 -6e-5 -8.5e-4v-1e-4 1e-4l6e-5 8.5e-4q-6e-5 -8.5e-4 -6e-5 -9.5e-4z"/> </g> <g fill="#ffb298"> <path d="m351.08 1061.9 11.239-1.9332 4.1601 5.6631-2.7574 1.2119-3.0068-3.2202-1.6594 1.5618 10.171 4.6218-1.6414 5.4216-3.1923-0.9111q0.9061 0.2021-0.23184 2.0461-2.0518 3.3482-4.2167 5.6673-1.5885 1.7549-3.3738 2.9587-0.88565 0.5809-1.7741 0.8986l-0.88348 0.2353q-0.88026 0.1609-1.7505 0.0659-0.44004 0.0743-2.5939-0.7294-2.5741-1.2449-5.1218-3.1766l6.6332-20.382z"/> </g> <g fill="#222b32" fill-opacity=".99608"> <path d="m274.13 964.01v0.0012-5e-4 -7e-4 0.0012-0.0012 7e-4q0-7e-4 0-7e-4z"/> <path d="m274.13 964.01v0.0012-5e-4 -7e-4 0.0012-0.0012 7e-4q0-7e-4 0-7e-4z"/> </g> <g fill="#222b32" fill-opacity=".2"> <path d="m266.04 1028.5 16.809 28.624 19.571 7.3874 21.815 27.205 2.46 26.924-28.825-8.8234-31.831-81.317z"/> </g> <g> <path d="m270.72 1104.2v1e-3q0 7e-4 0-1e-3z"/> </g> <g fill="#7d8b96"> <path d="m354.44 1063.5-57.704 0.0011-57.705 6e-4q-3e-5 34.571-6e-5 69.142 57.705 4e-4 115.41 5e-4 0-34.572-3e-5 -69.144z"/> </g> <g> <path d="m369.09 1200.6 6.2855 2.5781q29.586 11.027 40.193 17.306 2.275 1.3836 3.7492 2.658 1.1462 0.6931 2.8947 3.613 0.48999 1.1394 0.49948 2.2127l-0.07645 1.0615q-0.17927 1.0481-0.63311 2.0571l-1.6364 2.992-57.171-1.9362 5.8959-32.543z"/> <path d="m769.22 1085.9 16.808 0.0244 16.808 0.0246q-0.1076 73.281-0.2152 146.56-16.808-0.0236-33.615-0.0475 0.10777-73.282 0.21527-146.56"/> <path d="m767.59 846.52 33.443 0.0506q-0.14606 99.421-0.29242 198.84-16.721-0.0232-33.443-0.0474 0.14587-99.423 0.29199-198.85"/> <path d="m778.15 1031.7 6.4206 0.0097 6.4209 0.0098q-0.0536 36.813-0.10787 73.625-6.4209-0.0083-12.842-0.0176 0.05404-36.813 0.10809-73.627"/> </g> <g fill="#00bce9" fill-opacity=".99608"> <path d="m768.07 848.38 3.1013 0.0056q-0.14582 98.874-0.29056 197.75-1.5506-0.0022-3.1013-0.0039 0.14533-98.876 0.2906-197.75"/> </g> <g fill="#fff" fill-opacity=".99608"> <path d="m746.19 775.15 1.8e-4 2.5e-4 -1.8e-4 -2.5e-4"/> </g> <g fill="#2dff00" fill-opacity=".99608"> <path d="m786.53 988.74-0.02399 0.34961q-0.16885 1.0575-0.98211 1.6909-0.81854 0.63255-1.9266 0.5111-1.0575-0.16945-1.6904-0.9823-0.20303-0.2631-0.33398-0.57325l-0.11015-0.318q-0.0904-0.32849-0.0911-0.68579 0.0294-1.096 0.7583-1.8223 0.7288-0.72693 1.825-0.7528 1.0957 0.02916 1.8225 0.7583 0.7264 0.7279 0.75254 1.8244"/> </g> <g fill="#ff001c"> <path d="m786.56 996.12-0.02405 0.35035q-0.07515 0.4695-0.27735 0.8558-0.1011 0.19326-0.2341 0.36587-0.36044 0.41173-0.4708 0.46853-0.1816 0.1407-0.3779 0.24393-0.08925 0.07517-0.62105 0.22607-0.43518 0.09485-0.92775 0.04114-0.2351-0.03724-0.449-0.10654-0.1201-0.01516-0.5949-0.2801-0.36515-0.23427-0.64646-0.595-0.62784-0.8746-0.51994-1.8162 0.04753-0.46911 0.2334-0.8645 0.0929-0.19875 0.2203-0.37829 0.044-0.10316 0.4558-0.4939 0.6841-0.57642 1.6586-0.59986 0.2434 0.0066 0.4688 0.04786 0.124-9.6e-4 0.6347 0.20068 0.3961 0.18606 0.7191 0.50976 0.10227 0.06995 0.40646 0.5265 0.10954 0.1892 0.18464 0.3965 0.1498 0.4143 0.1615 0.90135"/> </g> <g fill="#8296a1" fill-opacity=".4"> <path d="m799.87 1086q-0.10746 73.281-0.2149 146.56 1.4813 2e-3 2.9628 0.0046 0.1076-73.281 0.2152-146.56l-2.9589-0.0046z"/> <path d="m794.95 846.56-0.29216 198.84q3.0436 0.0037 6.0871 0.0076 0.14636-99.421 0.29242-198.84l-6.0874-0.0091z"/> </g> <g fill-opacity=".38824"> <path d="m859.6 1231.3q1.7183 0.7115-41.302 1.7292-41.926 0.9248-122.49 1.756-78.109 0.7974-174.01 1.2359-31.967 0.1461-65.911 0.2524-17.999 0.0762-90.7 0.1392-178.31-0.0119-213.32-1.7275l-3.2471-0.4384q0.84581-0.318 6.457-0.6324 18.198-0.7824 27.555-0.9344 39.407-0.9414 117.18-1.7878 164.44-1.7055 356.46-1.7612 15.218-0.0312 76.273 0.1432 48.501 0.1853 79.071 0.5492 45.432 0.5439 47.977 1.4766"/> </g> <g fill="#fff"> <path d="m463.79 1081.4 214.7 0.2146q-0.01062 10.49-0.02107 20.981-107.35-0.1063-214.7-0.2127 0.01027-10.492 0.02075-20.983"/> <path d="m498.3 1095 18.127-0.0547q0.21095 69.086 0.42181 138.17-9.0638 0.0283-18.127 0.0561-0.2109-69.087-0.4217-138.17"/> <path d="m625.43 1099.5 9.0635-0.0271 9.0636-0.0268q0.20403 66.811 0.4083 133.62-9.0637 0.0283-18.127 0.056-0.2041-66.812-0.40804-133.62"/> </g> <g> <path d="m499.28 1046.2 15.112 0.0876 15.112 0.0877q-0.10205 17.699-0.20404 35.399-15.113-0.0867-30.225-0.1734l0.20419-35.401"/> <path d="m493.37 1052.6 12.719-0.0471c0.97163-0.0036 1.7622 0.7811 1.7659 1.7528l0.05741 15.181c0.00366 0.9717-0.78098 1.7622-1.7526 1.766l-12.719 0.0491c-0.46664 0.0018-0.91485-0.1819-1.2461-0.5107-0.33123-0.3287-0.51828-0.7755-0.52005-1.2421l-0.0574-15.183c-0.00178-0.4667 0.18192-0.9148 0.51065-1.246s0.77554-0.5183 1.2422-0.52m0.01308 3.5188 1.7528-1.766 0.05742 15.183-1.7662-1.7528 12.719-0.0491-1.7526 1.766-0.0574-15.181 1.7659 1.7528-12.719 0.0471z"/> <path d="m473.52 943.51v7e-5l-0.2671 0.00103v-1.3e-4l0.2671-9.7e-4v7e-5l-0.2671 0.00103v-1.3e-4l0.2671-9.7e-4m-0.2671 9.7e-4c-2.7e-4 -0.0737 0.0593-0.1337 0.13303-0.134 0.07377-3e-4 0.13379 0.05924 0.13407 0.13303v7e-5c2.7e-4 0.0738-0.0593 0.1338-0.13304 0.1341-0.07376 2.3e-4 -0.13378-0.05934-0.13406-0.13307v-1.3e-4c-2.7e-4 -0.0737 0.0593-0.1337 0.13303-0.134 0.07377-3e-4 0.13379 0.05924 0.13407 0.13303v7e-5c2.7e-4 0.0738-0.0593 0.1338-0.13304 0.1341-0.07376 2.3e-4 -0.13378-0.05934-0.13406-0.13307v-1.3e-4z"/> </g> </g> </svg>